<!-- Generator: Adobe Illustrator 21.1.0, SVG Export Plug-In  -->
<svg version="1.1"
	 xmlns="http://www.w3.org/2000/svg" xmlns:xlink="http://www.w3.org/1999/xlink" xmlns:a="http://ns.adobe.com/AdobeSVGViewerExtensions/3.0/"
	 x="0px" y="0px" width="617.3px" height="265.8px" viewBox="0 0 617.3 265.8"
	 style="overflow:scroll;enable-background:new 0 0 617.3 265.8;" xml:space="preserve">
<style type="text/css">
	.st0{fill:none;stroke:#FFFFFF;stroke-width:25;stroke-miterlimit:10;}
	.st1{fill:none;stroke:#FFFFFF;stroke-width:18;stroke-miterlimit:10;}
	.st2{fill:none;stroke:#FFFFFF;stroke-width:16;stroke-miterlimit:10;}
	.st3{fill:none;stroke:#FFFFFF;stroke-width:23;stroke-miterlimit:10;}
	.st4{fill:none;stroke:#FFFFFF;stroke-width:19;stroke-miterlimit:10;}

    #O {
        stroke-dasharray  : 1000;
        stroke-dashoffset : 0;
        animation         : O 7s linear forwards;
    }

    #g {
        stroke-dasharray  : 1000;
        stroke-dashoffset : 0;
        animation         : g 7s linear forwards;
    }

    #u {
        stroke-dasharray  : 1000;
        stroke-dashoffset : 0;
        animation         : u 7s linear forwards;
    }

    #z {
        stroke-dasharray  : 1000;
        stroke-dashoffset : 0;
        animation         : z 7s linear forwards;
    }

    #c {
        stroke-dasharray  : 1000;
        stroke-dashoffset : 0;
        animation         : c 7s linear forwards;
    }

    #a {
        stroke-dasharray  : 1000;
        stroke-dashoffset : 0;
        animation         : a 7s linear forwards;
    }

    #n {
        stroke-dasharray  : 1000;
        stroke-dashoffset : 0;
        animation         : n 7s linear forwards;
    }

    @-webkit-keyframes O {
        0% {
            stroke-dashoffset : 1000;
        }
        14.28571428571429% {
            stroke-dashoffset : 0;
        }
        28.57142857142858% {
            stroke-dashoffset : 0;
        }
        42.85714285714287% {
            stroke-dashoffset : 0;
        }
        57.14285714285716% {
            stroke-dashoffset : 0;
        }
        71.42857142857145% {
            stroke-dashoffset : 0;
        }
        85.71428571428574% {
            stroke-dashoffset : 0;
        }
        100% {
            stroke-dashoffset : 0;
        }
    }

    @-webkit-keyframes g {
        0% {
            stroke-dashoffset : 1000;
        }
        14.28571428571429% {
            stroke-dashoffset : 1000;
        }
        28.57142857142858% {
            stroke-dashoffset : 0;
        }
        42.85714285714287% {
            stroke-dashoffset : 0;
        }
        57.14285714285716% {
            stroke-dashoffset : 0;
        }
        71.42857142857145% {
            stroke-dashoffset : 0;
        }
        85.71428571428574% {
            stroke-dashoffset : 0;
        }
        100% {
            stroke-dashoffset : 0;
        }
    }

    @-webkit-keyframes u {
        0% {
            stroke-dashoffset : 1000;
        }
        14.28571428571429% {
            stroke-dashoffset : 1000;
        }
        28.57142857142858% {
            stroke-dashoffset : 1000;
        }
        42.85714285714287% {
            stroke-dashoffset : 0;
        }
        57.14285714285716% {
            stroke-dashoffset : 0;
        }
        71.42857142857145% {
            stroke-dashoffset : 0;
        }
        85.71428571428574% {
            stroke-dashoffset : 0;
        }
        100% {
            stroke-dashoffset : 0;
        }
    }

    @-webkit-keyframes z {
        0% {
            stroke-dashoffset : 1000;
        }
        14.28571428571429% {
            stroke-dashoffset : 1000;
        }
        28.57142857142858% {
            stroke-dashoffset : 1000;
        }
        42.85714285714287% {
            stroke-dashoffset : 1000;
        }
        57.14285714285716% {
            stroke-dashoffset : 0;
        }
        71.42857142857145% {
            stroke-dashoffset : 0;
        }
        85.71428571428574% {
            stroke-dashoffset : 0;
        }
        100% {
            stroke-dashoffset : 0;
        }
    }

    @-webkit-keyframes c {
        0% {
            stroke-dashoffset : 1000;
        }
        14.28571428571429% {
            stroke-dashoffset : 1000;
        }
        28.57142857142858% {
            stroke-dashoffset : 1000;
        }
        42.85714285714287% {
            stroke-dashoffset : 1000;
        }
        57.14285714285716% {
            stroke-dashoffset : 1000;
        }
        71.42857142857145% {
            stroke-dashoffset : 0;
        }
        85.71428571428574% {
            stroke-dashoffset : 0;
        }
        100% {
            stroke-dashoffset : 0;
        }
    }

    @-webkit-keyframes a {
        0% {
            stroke-dashoffset : 1000;
        }
        14.28571428571429% {
            stroke-dashoffset : 1000;
        }
        28.57142857142858% {
            stroke-dashoffset : 1000;
        }
        42.85714285714287% {
            stroke-dashoffset : 1000;
        }
        57.14285714285716% {
            stroke-dashoffset : 1000;
        }
        71.42857142857145% {
            stroke-dashoffset : 1000;
        }
        85.71428571428574% {
            stroke-dashoffset : 0;
        }
        100% {
            stroke-dashoffset : 0;
        }
    }

    @-webkit-keyframes n {
        0% {
            stroke-dashoffset : 1000;
        }
        14.28571428571429% {
            stroke-dashoffset : 1000;
        }
        28.57142857142858% {
            stroke-dashoffset : 1000;
        }
        42.85714285714287% {
            stroke-dashoffset : 1000;
        }
        57.14285714285716% {
            stroke-dashoffset : 1000;
        }
        71.42857142857145% {
            stroke-dashoffset : 1000;
        }
        85.71428571428574% {
            stroke-dashoffset : 1000;
        }
        100% {
            stroke-dashoffset : 0;
        }
    }
</style>
<defs>
    <mask id="O">
        <path id="O__x3C_path_x3E__1_" class="st0" d="M129.7,15.6c-15-3-34,8-51,22s-23,31-23,31s-13,19-10,39s26,20,35,20s21,9,50-16
	s30-40,30-40s8-24,3-37S144.7,18.6,129.7,15.6z"/>
    </mask>
    <mask id="g">
        <path id="g__x3C_Path_x3E__1_" class="st1" d="M232.7,77.6c0,0-14-7-23-5s-28,19-34,35s-9,20,0,20s33-25,42-40s19-37,19-37
	s-40,81-61,117s-25,36-30,46c-8,10-20,22-40,34c-20,12-40,10-66,7c-11.5-1.3-22.7-14.7-28-28c-6.7-16.7,1-34,1-34"/>
    </mask>
    <mask id="u">
        <path id="u__x3C_Path_x3E__1_" class="st2" d="M266.2,68.1c0,0-21.5,38.5-25.5,45.5s0,15,11,9c11-6,21-18,21-18l20-31
	c0,0-25,39-27,46s-1,10,5,11s6,4,18-3c12-7,30-33,30-33"/>
    </mask>
    <mask id="z">
        <path id="z__x3C_Path_x3E__1_" class="st1" d="M330.2,62.1c0,0-9,16-5.5,21.5c1.2,1.9,4.7,2.7,7,4c9,5,35.5-14.5,35.5-14.5
	s-21.5,16.5-33.5,26.5s-44,29-44,29l19-8l22,19l37.5,19.5l31,3c0,0,10.7-1.3,15.5-4.5s10.5-8.5,10.5-8.5l8-12"/>
    </mask>
    <mask id="c">
        <path id="c__x3C_Path_x3E__1_" class="st3" d="M409.7,93.6c0,0,0-19-5.5-20.5s-18.5,6.5-28,18s-14.5,24.5-11,30s12.5,6.5,22,5
	s46.5-35.5,46.5-35.5"/>
    </mask>
    <mask id="a">
        <path id="a__x3C_Path_x3E__1_" class="st4" d="M495.7,74.6c0,0-17-3-28-1s-14,3-21,8s-22,21-25,30s-4,14,0,14s12,0,23-12
	s25-29,25-29l13-22c0,0-28,49-29,55s-3,9,7,11c10,2,19-4,24-8s28-29,28-29"/>
    </mask>
    <mask id="n">
        <polyline id="n__x3C_Path_x3E__1_" class="st4" points="525.7,65.6 489.7,130.6 566.7,59.6 514.7,138.6 585.7,91.6 "/>
    </mask>
</defs>
<g>
	<path mask="url(#O)" id="O_1_" d="M86.4,130c-25.2,0-48.5-4.8-48.5-32.5c0-21.3,17.5-49.3,33.5-62.8c15-13,34.8-18.8,54.8-18.8
		c21.8,0,48.3,6.8,48.3,32C174.4,89.5,132.4,130,86.4,130z M125.2,18c-16.5,0-30,6.8-41,20c-12,14.3-27.5,41.8-27.5,62
		c0,21.3,12,27.8,29.5,27.8c36.8,0,69.5-45.8,69.5-81.5C155.7,25.7,143.2,18,125.2,18z"/>
	<path mask="url(#g)" id="g_1_" d="M234.1,69.2c-24.5,52.5-47.8,90.5-74,128.8c-22.8,33-58,63.5-105.5,63.5c-32.3,0-47-26-47-45.2
		c0-4.8,1-10.3,2-13c0.3-1.3,1.8-1.3,1.8,0.3c-0.5,1.8-0.8,4.5-0.8,6.5c0,28,29.8,42.5,57.2,42.5c44.3,0,68-21.3,97.8-71.8
		c9.8-16.5,27-52.3,40.8-82.3c-12.8,20.5-25.3,34.3-34.5,34.3c-3,0-6-2-6-6.3c0-16.8,20-43.3,37.8-51.5c4-2,8.8-3,12.5-3
		c1,0,2.3,0,3,0.3c2.8-4.8,5.8-10.3,8.8-15.8c1-2,2.3-3.3,3.3-3.3c1.8,0,4.5,6.8,4.5,10.3C235.6,65,235.1,67.2,234.1,69.2z
		 M213.9,75.2c-4.5,0-9.5,0.8-13,3.5c-14.8,11.8-19,32.5-19,38.5c0,1.8,0.8,4,2,4c4.8,0,21.5-21.5,33.8-45.5
		C217.1,75.5,214.9,75.2,213.9,75.2z"/>
	<path mask="url(#u)" id="u_1_" d="M270.4,134.5c-5.5,0-10-3.3-10-9.5c0-3,1.3-7.3,3.3-11.8c-4,5-13.7,14.5-23.7,14.5c-3.5,0-6.8-2-6.8-6.8
		c0-5,6.3-18.5,23.5-48.3c0.8-1.5,2.3-2.8,2.8-2.8c4,0,9.3,4.8,9.3,7.3c0,0.5-0.5,1.5-1.5,3c-10.5,16-19.5,31.8-19.5,38
		c0,2.5,1.5,3,2.5,3c2.8,0,10-4,18-16.3c5.8-10.5,12.8-23.3,15.8-28.3c0.8-1,2-2,2.8-2c2.3,0,7,5.3,7,9.3c0,1.3-0.3,2.5-1,3.8
		c-7.8,12-20,25.5-20,38.3c0,4,2.5,4.3,3.5,4.3c9,0,26.3-12.5,41.3-34.8c0.8-0.3,1.5,0.3,1.5,1.3C307.6,113,287.6,134.5,270.4,134.5
		z"/>
	<path mask="url(#z)" id="z_1_" d="M391.4,164.2c-30.8,0-58.5-15.3-90.8-38.8c-1.3-0.8-1.5-1-3.3,0c-2.5,1.5-4.5,2.8-7.5,4.8
		c-2.5,1.8-4-1.5-1.5-2.8c30.5-14.8,58.3-37.8,58.3-39c0-0.8-0.5-1.3-1-1c-5,2.3-12.3,4.8-17,4.8c-6,0-10.3-4.8-10.3-12.8
		c0.8-2.8,8.5-9,13.8-12.3c0.8,0,1,0.5,1,1c-1.3,1.3-2.3,3.8-2.3,7c0,5.5,4.5,11,10.5,11c7.8,0,14-5,21.5-12.3
		c1.5-1.5,4,0.5,2.5,2.5c-5.8,4-12.8,9.8-16.5,13c-8,7-18,15-33.8,25.5c-1.3,0.8-2.5,1.8-0.5,3.3c33.8,26.3,63.8,43.3,81.8,43.3
		c14.8,0,27.3-8.5,35.5-23.8c0.8-0.5,1.3-0.3,1.5,0.5C430.6,151.2,413.6,164.2,391.4,164.2z"/>
	<path mask="url(#c)" id="c_1_" d="M391.4,126.5c-5,2-11.8,4-17.3,4c-8.8,0-15-3.5-15-11.3c0-2.8,1.3-6.8,2.8-10.5c6.3-15.5,23.8-30.5,37-36.3
		c1.8-0.8,5.3-2.3,6.8-2.3c6,0,9,2.8,9,7.3c0,2.3-0.5,4.3-1.8,5.8c-1,1-6.5,5.5-8.5,8.3l-0.8-0.3c0.5-1.3,0.8-2.8,0.8-4.3
		c0-5-3.8-9-7.5-9c-12.5,0-21.8,18-21.8,35.5c0,6.5,2.3,11.3,9.3,11.3c9.3,0,28.3-10.8,46-32.8c1.8-1.8,2.8-0.3,1.3,1.3
		C421.4,105.7,404.6,121,391.4,126.5z"/>
	<path mask="url(#a)" id="a_1_" d="M459.4,132.7c-6.8,0-11.8-2.3-11.8-9.8c0-4.5,2.5-11.5,8-20.5c-8.3,12-26.5,28.3-37.8,28.3c-4.8,0-6-3.5-6-7.3
		c0-15.3,27.5-50.8,59.8-50.8c2-3.3,2.8-4.5,4-5l13.8-2.8l0.5,0.3c-1.5,1.8-3,4.3-4.8,7c1.8,0,6,0.5,7.5,0.8c1.8,0.8,1.5,2,0.5,2
		c-2-0.5-7-1-9-1c-15.3,27-21.8,40.3-21.8,48c0,3,0.5,5.3,5,5.3c10.5,0,26.3-13.3,42.5-33.5c0.8-1,1.5-0.3,1.5,0.8
		C494.9,115.5,474.6,132.7,459.4,132.7z M470.1,74.5c-22.5,0-42.3,35-42.3,45.3c0,1.5,1,2.5,2,2.5c4.5,0,16.8-9,26-22.8
		c5.3-8,10.5-17.8,14.5-24.8L470.1,74.5z"/>
	<path mask="url(#n)" id="n_1_" d="M531.4,131c-4,0-9.3-1.3-9.3-5.8c0-9.5,14.3-27.8,19.8-41.5c0.8-1.8,0-3.3-1.5-2.3c-7.3,4.8-19.5,15-25.8,22.3
		c-5.3,8.3-9.5,16.8-15.3,25.5c-0.5,0.8-1.3,2.3-3,2.3c-3.5,0-6.5-6.8-6.5-9.8s6.3-10.8,11.3-17c5.3-10.8,12.3-25,16.3-34.3
		c0.5-0.8,2.5-1.8,3.3-1.8c5.3,0,9,3.8,9,7.3c0,1.3-7.3,11.8-12.5,22c13-13,36.8-30.8,41.8-30.8c1.8,0,4.5,2.8,4.5,4
		c0,1-0.5,1.8-1.3,3c-7.5,10.8-24.8,38.8-24.8,47.3c0,3,1,4.3,3.8,4.3c11,0,31.8-18,41-32.8c0.8-1,2.8-0.5,1.3,1.5
		C571.4,111.2,549.9,131,531.4,131z"/>
</g>

</svg>
